# xmcd
#
# Track frame offsets:
#	150
#	30171
#	53930
#	75110
#	92432
#	120376
#	161589
#	186461
#
# Disc length: 2772 seconds
#
# Revision: 1
# Processed by: cddbd v1.5.2PL0 Copyright (c) Steve Scherf et al.
# Submitted via: audiograbber 1.83.01
#
DISCID=4f0ad208
DTITLE=The Strayin´Sparrows - Cannonball
DYEAR=2013
DGENRE=Blues
TTITLE0=Goodbye Lover
TTITLE1=One Kiss
TTITLE2=Moonlight
TTITLE3=Shoot Me
TTITLE4=Beggar  Man
TTITLE5=Head In The Clouds
TTITLE6=Far Away
TTITLE7=Unicorn Alley
EXTD=
EXTT0=
EXTT1=
EXTT2=
EXTT3=
EXTT4=
EXTT5=
EXTT6=
EXTT7=
PLAYORDER=
